<?xml version="1.0" encoding="utf-8"?>
<!-- Generator: Adobe Illustrator 25.2.0, SVG Export Plug-In . SVG Version: 6.00 Build 0)  -->
<svg version="1.1" id="outputsvg" xmlns="http://www.w3.org/2000/svg" xmlns:xlink="http://www.w3.org/1999/xlink" x="0px" y="0px"
	 viewBox="0 0 640 640" style="enable-background:new 0 0 640 640;" xml:space="preserve">
<style type="text/css">
	.st0{fill:#E0F4E1;}
	.st1{fill:#D8F4DF;}
	.st2{fill:#08482C;}
</style>
<g id="l6LIbw3DYoQTzrcARi7byWV">
	<g>
		<path id="p177ipFQrQ" class="st0" d="M347.7,577c-11.9-2.3-33-10.6-41.3-16.6c-12.2-8.5-19.3-16.2-33.8-36.4
			c-7.7-10.8-20.6-25.9-28.4-33.9c-10.3-10.3-14.4-15.3-14.4-18.3c0-3.8,0.7-4.1,7.3-4.1c5.9,0,7.3,0.5,7.3,2.9c0,4.7,2.8,8,5.1,5.7
			c2.3-2.3,2.1-20.7-0.2-21.4c-1-0.3-1.6-2-1.6-3.8c0-1.6-0.7-3.1-1.6-3.1c-0.8,0-1.6,1.5-1.6,3.3c0,1.8-1.1,3.3-2.4,3.3
			c-1.3,0-2.4,1.1-2.4,2.4c0,4.1-6.2,9-11.4,9c-2.6,0-4.9-0.7-4.9-1.5c0-0.8-1.1-4.1-2.6-7.5c-1.8-4.6-2.9-5.7-4.4-4.2
			c-2.8,2.8-11.1,2.1-13.5-1c-2.1-2.8-2.4-2.6-5.5,1.1c-7.2,9-10.9,11.9-14,10.8c-1.1-0.5-2.3-0.2-2.3,0.7c0,1-1.1,1.6-2.4,1.6
			c-1.3,0-2.4-1.5-2.4-3.3c0-2.1-1.1-3.3-3.3-3.3c-1.8,0-3.3-1.1-3.3-2.4c0-1.6-1.6-2.4-5.5-2.4c-3.1,0-6.2-0.7-6.7-1.6
			c-1.5-2.3-4.1-2-4.1,0.5c0,1-0.8,4.7-1.8,8.2c-1.6,5.9-2,6.2-7.7,5.7c-5.5-0.5-6-1-7.3-7.3l-1.3-6.7l-9-0.7c-5.1-0.2-9.5,0-10,0.8
			c-0.3,0.7,2.3,1.1,5.7,1.1c7.8,0,10.4,2.8,9.8,10.1c-0.5,5.1-0.8,5.4-7.8,5.9c-4.1,0.3-12.7,0.2-19.3-0.5l-11.8-1.1l0.2-8
			c0.2-4.6-0.5-9-1.5-10c-1-1-5.7-2.1-10.4-2.6c-10.4-1-11.3-1.5-18-13.2c-5.7-9.6-6.9-14.2-4.1-16c1-0.7,1.1-0.2,0.3,1.1
			c-0.8,1.5-0.7,1.8,0.7,1c1-0.7,1.5-1.8,1-2.6s0.7-4.7,2.6-8.5c2.9-5.9,3.8-10.9,4.7-33.1c1.3-28.9-0.2-40.8-5.2-42.1
			c-2-0.5-2.9-2.3-2.9-5.1c0-2.3-0.7-4.2-1.6-4.2c-2.1,0-2-3.3,0.5-7.7c1-2.1,4.7-9.3,8.3-16c4.2-8.3,7-12.1,8.5-11.6
			c1.3,0.5,2.1,0.3,2.1-0.3c-0.7-2.9,2.4-11.8,3.3-10.3c0.7,1,5.4-1.6,11.8-7c12.6-10.3,16.3-11.6,20.4-7c2.8,3.4,2.9,3.4,4.6-3.8
			c1.8-7,2.3-7.7,14-13.4c15.5-7.7,24-10.3,26.8-8c1.1,1,2.4,1.5,2.9,1c0.7-0.8,9.6,8.6,16.5,17c1.3,1.8,2,1.8,2.4,0.3
			c0.3-1.1-0.5-2.9-2-3.9c-3.4-2.6-5.4-16.6-2.6-19.9c1.3-1.6,4.9-2.4,10.8-2.4c8,0,9.5,0.5,14.7,5.9c5.5,5.9,10.3,6.7,5.1,1
			c-1.6-1.6-2.8-4.9-2.8-7.2c0-3.3,1-4.4,4.4-5.1c2.4-0.5,6,0,7.8,1c2.9,1.5,3.1,1.5,1-1c-2.9-3.6,0.2-3.8,5.5-0.2
			c2.1,1.5,4.6,2.1,5.4,1.6c1-0.5,2.1,0.8,2.6,3.1c1.5,5.7,4.2,5.1,4.2-0.8c0-4.6,0.3-4.9,7-5.1l6.9-0.2l-6.5-2.1l-6.5-2.1l5.9-0.2
			c4.4-0.2,6.9,1,9.8,4.2c2.9,3.3,3.1,3.9,0.7,2.1c-3.1-2.3-3.1-2.3-1,0.5c1.1,1.5,4.2,2.8,6.9,2.8s4.7,0.8,4.7,1.8
			c0,2.1,13.5,0.3,14.4-2c0.3-0.8,2-1.5,3.8-1.5c2.6,0,3.1-1.1,3.1-9v-9l10-6c5.5-3.4,20.1-13.7,32.3-23
			c12.2-9.1,33.3-25.1,46.8-35.4c29-21.9,49.6-34.8,69-42.9c12.6-5.2,15.7-5.9,31.2-6.4c9.5-0.3,18.6,0.2,20.4,1
			c1.8,0.8,5.2,2,7.7,2.4c2.4,0.5,5.5,2.1,6.9,3.6c3.1,2.9,3.4,13.1,0.7,14.2c-1.1,0.3-1.6,1.1-1.1,1.8c0.5,0.7,2.9,0.3,5.4-0.7
			c9.1-3.4,15-2.1,20.6,4.4c2.8,3.4,5.9,9.5,7,13.4c1.3,4.7,3.1,7.5,5.5,8.5c3.8,1.5,8.3,9.3,16,27.6c7.8,18.8,9.1,21.1,11.6,20.1
			c3.6-1.3,2.8,2.9-1.8,9.6c-2.3,3.3-4.1,6.7-4.1,7.3s0.7,0.5,1.3-0.7c2.4-3.9,5.4,0.8,7,11.6c2.6,16,0,43.9-5.7,60.7
			c-1.5,4.4-2.6,8.6-2.4,9.5c0,0.8-0.5,2-1.3,2.4c-0.7,0.5-3.1,4.6-5.4,9c-10.8,21.5-33.3,54.8-36.9,54.8c-2,0-2.3-1.6-2-6.9
			c0.3-5.5-0.3-7.8-3.6-11.3c-10.9-11.6-16-4.4-13.1,18.4c1,7.5,1.6,17.3,1.3,21.7c-0.5,8.2-0.5,8.2-6.4,8.6
			c-5.4,0.5-6.9-0.3-13.1-7.2c-12.2-13.2-12.7-13.7-16.2-13.7c-2.3,0-3.3-1.1-3.3-3.6c0-2.1-2-5.5-4.1-7.7c-2.3-2.1-4.1-4.4-4.1-5.2
			c0-0.8-1-1.5-2.3-1.5c-1.5,0-2.8-2.6-3.4-6.7c-1.1-6.4-4.9-12.9-7.7-12.9c-0.8,0-1.3,2.3-1.3,4.9c0,3.3-0.8,4.9-2.4,4.9
			c-2.9,0-2.8-3.9-2.4,43.2c0.3,38.8,0.7,41.5,5.9,41.6c0.8,0,3.1-1,4.9-2.3c2.8-2.1,3.1-4.9,3.8-22.8l0.5-20.6h6.9
			c12.7,0,18.9,1.8,18.9,5.2c0,1.8,2.8,6.7,6.4,10.9c7.2,8.6,9.1,15,6.7,23c-3.3,10.9-6.4,29-5.4,32.5c0.7,2.4,0.2,3.4-1.8,3.4
			c-1.5,0-2.9,1.8-3.6,4.6c-1.8,8-2.1,8.5-8,8.5c-3.1,0-5.7,0.8-5.7,1.6c0,1-1.1,1.6-2.6,1.6c-1.8,0-2.3,0.8-1.6,2.6
			c0.5,1.5,1,2.9,1,3.3s2.9,0.7,6.4,0.7c9,0,11.6,1.3,11.6,6c0,6.7-8,28.6-14.7,39.7c-6.5,10.9-17.3,24.5-19.4,24.5
			c-0.8,0-3.9,2.4-7.2,5.5c-7.8,7.3-20.4,14.2-36.2,19.7c-10.8,3.6-16.5,4.6-31.8,5.1C364.8,578.1,352.4,577.8,347.7,577z
			 M446,476.4c0.7-1.5,0.8-2.9,0.7-2.9c-0.3-0.2-2.6-1-5.4-2c-4.4-1.3-4.9-2.3-5.4-9.3c-0.5-7.5-0.5-7.7,4.2-7.7
			c3.1,0,5.2-1,5.9-2.6c1.5-4.1,0.5-4.4-8.8-3.1c-6.9,1-8.6,2-10,5.2c-2.4,6.4-1.8,19.6,1.1,22.4C431.9,480,444.6,480,446,476.4z
			 M289.9,474.2c1.8-2.9,1.6-3.3-2.9-3.3c-4.7,0-4.9-0.3-4.9-7.3c0-5.5,0.7-7.7,2.9-8.5c5.5-2.1,6.7-4.7,3.3-6.9
			c-2.6-1.6-3.9-1.5-7,0.5c-5.4,3.6-8.3,9.1-4.9,9.1c1.8,0,2.4,1.8,2.4,7.3c0,6.2,0.5,7.3,3.3,7.3c1.8,0,3.3,1.1,3.3,2.4
			C285.4,478.4,287.5,478.1,289.9,474.2z M388.2,475.8c0-0.8-0.7-1.6-1.6-1.6c-0.8,0-1.6-1.5-1.6-3.1s-1.1-3.4-2.4-4.1
			c-2.9-1-3.4-13.2-0.7-14.9c1-0.8,0.7-2-1.3-3.3c-2.4-2-3.6-1.5-8,3.1c-7,7.2-10.1,16.2-7.2,19.7c1.3,1.6,3.8,3.4,5.7,4.1
			C375.8,477.7,388.2,477.7,388.2,475.8z M318,466c0-5.9,0.7-8.2,2.3-8.2c1.1,0,3.1-1.1,4.2-2.6c1.8-2.1,1.6-3.1-1.3-6l-3.6-3.4v4.4
			c0,2.8-0.8,4.4-2.4,4.4c-2,0-2.4,2.1-2.4,9.8c0,5.4,0.7,9.8,1.6,9.8C317.4,474.2,318,470.6,318,466z M468.1,455.7
			c0-5.1-1.3-6.2-4.9-4.1c-2.3,1.5-2.6,2.4-1.1,4.9C464.7,460.6,468.1,460.1,468.1,455.7z M126.7,411.6c0.3-7.5,0-9.3-2.1-9.3
			c-1.8,0-2.4-1.6-2.4-5.7c0-3.9,0.8-5.7,2.4-5.7c2.3,0,3.3-4.4,2.6-11.8c-0.3-2.4,1-2.9,6.9-2.9c4.4,0,8,1,9.3,2.4
			c1.1,1.3,3.8,2.4,5.9,2.4c3.3,0,3.9,0.8,3.9,4.9c0,3.4,1.5,5.9,5.5,9.1c3.1,2.4,10.3,9.8,16,16.5c10,11.6,14.4,14.5,14.4,9.5
			c0-1.3,0.7-2.4,1.5-2.4c1,0,1.3-16.2,1-39.3c-0.5-32.2-1-39.8-2.9-41.8c-3.1-3.3-6-1.5-6,3.8c0,2.4-1,3.9-2.4,3.9
			c-2.8,0-2.8,0-2.4,15.2c0.3,14.9-0.7,17.5-6.9,17.5c-10.9,0-21.2-5.2-32.6-17c-6-6.2-12.1-13.7-13.4-16.5
			c-2.1-4.4-3.3-5.1-7.5-4.4l-4.9,0.7v39.8c0,27.6,0.7,40.8,2,42.9c1.8,2.9,2.1,2.9,6.9,0.3C125.8,421.1,126.2,420,126.7,411.6z
			 M396,421.1c2.4-0.7,3.4-2,2.9-3.6c-0.5-1.3-1-18.4-1-38.2c0-34.6-0.2-35.7-3.3-35.7c-2.1,0-3.3-1.1-3.3-3.1c0-1.6-1-3.4-2.3-3.9
			c-1.6-0.7-2,0.7-1.3,6.4c0.7,6.5,0.5,7.2-2.8,7.2c-3.4,0-3.4,0.5-3.4,27.7c0,23.5,0.3,27.7,2.4,27.7c1.8,0,2.4,2,2.4,7.3
			c0,7,3.1,13.5,4.9,10.6C391.9,422.9,393.9,421.8,396,421.1z M271.8,412.1c2-5.9,3.8-12.6,3.8-15c0-2.6,0.8-4.6,1.6-4.6
			c1,0,1.6-1.5,1.6-3.3c0-2.6,1.1-3.3,5.7-3.3c3.1,0,5.7,0.7,5.7,1.5s1.1,1.8,2.6,2.1c2.6,0.5,10.4,20.1,10.4,25.9
			c0,1.5,1.5,3.9,3.1,5.4c2.9,2.6,3.3,2.6,5.7-1c1.5-2,2.6-6.4,2.6-9.8c0-4.4,0.7-6.2,2.4-6.2c1.6,0,2.4-1.8,2.4-5.7
			s0.8-5.7,2.4-5.7c1.8,0,2.4-1.8,2.4-6.4c0-3.6,0.5-6.7,1.3-7c2.8-1.1,8.5-14.7,8.5-19.9c0-4.6,0.7-5.7,3.8-6.2
			c2.9-0.3,3.8-1.6,4.1-7.2c0.5-6.2,0-6.9-4.6-8.8c-3.8-1.5-5.4-1.6-7.2-0.2c-3.1,2.6-4.2,11.6-1.5,11.6c1.3,0,2.1,2,2.1,5.4
			c0,6.4-2.1,10.1-5.2,9c-1.6-0.7-3.4,2.3-6.2,10.8c-4.7,13.7-6.4,15.7-12.9,15.7c-4.2,0-5.1-0.7-5.1-3.9c0-2.1-0.8-4.2-1.6-4.6
			c-1-0.3-1.8-6.9-2.1-14.7c-0.3-12.6-0.7-14.2-3.6-15c-2-0.5-4.4-3.8-6.2-8.3c-3.6-8.5-7.7-9.8-7.7-2.4c0,2.8-0.5,4.9-1.1,4.9
			c-0.8,0-1,3.8-0.7,8.5c0.3,5.2-0.7,12.1-2.4,18c-3.1,9.3-3.3,9.5-9,9.5c-6.7,0-10.6-4.2-12.2-13.5c-3.8-21.1-18.6-42.3-18.6-26.4
			c0,4.1-0.7,5.7-2.4,5.7c-2,0-2.1,0.7-1.1,2.9c1,1.5,2.1,5.9,2.8,9.6c0.5,3.6,2.4,8,4.1,9.5c1.8,1.6,4.1,5.5,5.1,8.8
			c2.4,7.2,6.2,13.2,8.5,13.2c3.8,0,5.9,6.2,6,17.3C259.3,427,265.8,429.1,271.8,412.1z M476.1,328.9c3.6,0,4.2-2.6,2.4-9.3
			c-0.7-2.4-2.4-3.6-6.5-4.1l-5.5-0.7v8.6c0,8.2,0.2,8.6,3.1,7C471.4,329.7,474.4,328.9,476.1,328.9z M219.9,308.2
			c0.5-0.8,3.1-2.8,5.5-4.2c5.5-3.6,5.5-9.8,0-10.6c-2.1-0.3-3.8-1.3-3.8-2.1c0-1-1.1-2.8-2.4-4.1c-2.1-2.1-2.4-2.1-2.4-0.2
			c0,3.1-3.4,4.4-11.4,4.4c-4.7,0-6.9-0.8-8.2-3.3s-3.4-3.3-8.2-3.3c-3.4,0-8.2-0.7-10.6-1.6c-2.3-0.8-3.9-1-3.4-0.2
			c0.5,0.7,4.1,2.3,8,3.3c4.9,1.5,8.2,3.8,10.8,7.7c2.1,3.1,5.1,5.5,6.7,5.5c2,0,3.3,1.8,4.1,5.9c1,5.9,1.1,5.9,7.7,5.1
			C216,310,219.4,309,219.9,308.2z M288.1,300c-0.7-0.7,1-2,3.8-3.1c6.4-2.8,6.4-5.2-0.2-4.2c-4.1,0.7-5.9-0.2-9.5-4.2
			c-4.1-4.7-4.6-4.9-12.4-3.6c-4.4,0.8-9.1,1.5-10.1,1.5c-3.6,0.2-2.3,3.4,1.1,3.4c1.8,0,3.3,1,3.3,2.3c0,2.8,10.4,6.5,16.6,6.2
			c2.4-0.2,4.7,0.3,5.4,1.3c0.5,0.8,1.5,1.6,2,1.6C288.8,301.2,288.6,300.7,288.1,300z M170,278.1c-2-2-28.9-7.8-36.7-7.8
			c-2.6-0.2-4.6,0.7-4.6,1.5c0,1,3.4,1.6,7.7,1.6c9.5,0,28.6,3.1,30.7,5.1C169.3,280.6,172.1,280.3,170,278.1z M211.9,268.4
			c0-3.6,0.8-5.2,3.3-5.9c3.3-0.8,4.7-7,1.6-7c-0.8,0-1.8-2-1.8-4.4l-0.3-4.6l-0.7,4.6c-0.3,2.4-1.6,4.4-2.9,4.4
			c-1.1,0-2.4,1.6-2.8,3.8c-0.3,2.9-1.6,3.8-7.7,4.1c-3.9,0.3-8-0.3-8.8-1.1c-1-1-2.9-1.8-4.2-1.8c-1.6,0-1.3,1.1,1.5,4.1
			c2.1,2.3,5.5,4.1,7.7,4.1c2.1,0,4.2,1.1,4.7,2.4c0.7,1.5,3.1,2.4,5.7,2.4C211.4,273.4,211.9,272.9,211.9,268.4z M445.6,266.9
			l0.5-6.4l-6.5-0.5c-5.4-0.3-6.7-1.1-7-4.1c-0.3-2.1-1.3-3.8-2.1-3.8s-1.5-2-1.5-4.4c0-2.3-0.5-3.8-1.1-3.1c-0.7,0.5-1,4.4-0.7,8.3
			l0.3,7.3h-5.9h-5.9l3.4,3.6c1.8,2,3.3,4.1,3.3,4.9c0,0.7,2.8,1.3,6.2,1.3c3.3,0,7.2,0.8,8.5,1.6
			C442.4,275.2,445,273.7,445.6,266.9z M502.3,257.6c3.1-2.4,14.9-2.8,14.9-0.5c0,0.8,1.1,1.1,2.4,0.7c1.3-0.7,2.4-2,2.4-3.1
			c0-1.1,2.1-3.1,4.7-4.2c2.8-1.1,5.2-3.4,5.5-5.1c0.7-2.1,2.4-2.9,6.5-2.9c4.2,0,6.5-1,8.3-3.6c3.9-5.4-0.3-6.9-6-2
			c-2.6,2.1-5.2,3.9-6,3.9c-0.8,0-3.6,2.3-6.2,4.9c-4.6,4.6-5.9,4.9-17.1,4.9c-11.1,0-12.4-0.3-14.9-4.1c-1.5-2.1-2.6-5.4-2.6-7.3
			c0-4.6-2.8-4.1-3.6,0.8c-0.5,2.3,0.2,4.9,1.3,5.9c1.3,1,2.3,3.6,2.3,5.7c0,2.1,0.8,3.9,1.6,3.9c1,0,1.6,2,1.8,4.6
			c0,2.6,0.5,3.4,1,2C499.3,260.7,500.8,258.7,502.3,257.6z M469.1,254.3c3.1-3.3,4.7-10.1,2.6-12.2c-1.1-1.1-2.8-0.5-5.5,2.4
			c-2.1,2.3-5.9,6.4-8.3,9.1c-4.6,5.1-4.6,5.1-0.8,5.1c2.1,0,4.9,0.8,6.2,1.6c1.8,1.1,2.6,0.8,3.1-1.1
			C466.7,257.7,467.8,255.5,469.1,254.3z M299.1,239.8c3.8-1.5,3.3-3.9-0.7-3.9c-1.8,0-3.3,1.1-3.3,2.4
			C295.2,241.1,295.5,241.3,299.1,239.8z M344.1,231.8c3.1-0.5,7.5-2.3,9.6-3.9l3.9-2.9l-8.3-1.1c-4.6-0.5-8.5-2-8.8-2.9
			c-0.8-2.1-7.8,4.1-7.8,6.9c0,1-1.1,1.6-2.6,1.6c-2.1,0-2.3,0.5-0.7,2.4c1.1,1.3,3.6,2.1,5.5,1.6
			C336.8,233.1,341,232.5,344.1,231.8z M503.6,229.2c0.8-0.8,5.4-2.6,10.1-3.9c8.6-2.3,19.7-9.3,19.7-12.6c0-1.1-0.7-1.1-2-0.2
			c-1.1,1-7,3.3-13.1,5.2c-6.4,2.1-12.2,5.2-14,7.5c-1.6,2-4.4,4.1-6.2,4.6c-2.9,0.7-2.9,0.8,0.3,1
			C500.3,230.8,502.6,230.2,503.6,229.2z M376.8,218.9c4.1-2.1,9.3-4.2,11.9-4.9c2.6-0.7,4.4-2.1,4.4-3.8c0-2.4-0.3-2.4-2.8,0
			c-1.6,1.3-6,3.3-9.8,4.2c-3.8,1-7,2.6-7.3,3.6c-0.3,1-3.1,2.3-6.2,3.1c-4.6,1-4.9,1.3-1.6,1.5C367.6,222.8,372.7,221,376.8,218.9z
			 M412.7,208.1c0-2.1-3.3-2.1-6.5,0c-2,1.3-1.5,1.6,2.1,1.6C410.7,209.8,412.7,209.1,412.7,208.1z M460.5,207
			c0.7-0.3,1.1-2.3,1.1-4.1c0-1.8,1.1-4.2,2.6-5.4c2.4-1.6,2.4-2,0.2-2.9c-1.8-0.7-3.3,0.8-5.2,4.7c-1.6,3.4-3.8,5.5-5.7,5.5
			c-1.8,0-3.3,1.1-3.3,2.4c0,2,1.1,2.3,4.6,1.5C457.2,208.1,459.7,207.3,460.5,207z M349.7,201.1c2.6-2,2.3-2.1-2.9-1.5
			c-3.3,0.3-6.4,1.3-6.9,2.1C338.6,204.1,346.4,203.6,349.7,201.1z M437.5,194.3c-0.8-4.7-0.8-4.7-3.4,0.5c-1.6,3.1-1.5,3.6,1.1,3.6
			C437.6,198.3,438.1,197.5,437.5,194.3z M405.3,185.9c1.3-0.7,2.4-2,2.4-3.3c0-2.8-5.2-2.9-7.8-0.3c-1.1,1.1-4.9,2.9-8.2,4.1
			l-6,2.1l8.6-1C399.1,187.2,404,186.4,405.3,185.9z M435.7,171.4c1.6-0.7,3.1-2.3,3.1-3.8c0-2-0.5-2.1-2-0.7c-1.1,1.1-3.1,2-4.6,2
			c-2.1,0-2.4,1.1-1.8,5.4c0.7,4.1,1,4.4,1.5,1.6C432.2,174,433.9,171.9,435.7,171.4z M458.4,160c1.1-1.3,1.3-2.4,0.3-2.4
			c-0.8,0-2.4,1.1-3.6,2.4c-1.1,1.3-1.3,2.4-0.3,2.4C455.6,162.4,457.2,161.3,458.4,160z"/>
		<path id="p1AgwfqXHk" class="st0" d="M44.8,385c-0.5-1.5-1-9.1-1-17.1v-14.7l4.6,0.5l4.4,0.5l0.5,16.8l0.5,16.6h-4.1
			C47.6,387.7,45.3,386.5,44.8,385z"/>
	</g>
</g>
<g id="l1URyhpIkd9TGCAm1RIH7Xb">
	<g>
		<path id="p1FsLxQQiT" class="st1" d="M347.7,577c-13.5-2.4-33.6-10.9-43.9-18.6c-12.1-9-17.1-14.5-30.7-33.6
			c-15.5-21.5-24.3-31.8-36.6-41.9c-11.3-9.1-13.2-10.1-13.2-6.2c0,1.3-1.1,2.4-2.4,2.4s-2.4-1.1-2.4-2.4c0-1.3-0.7-2.4-1.6-2.4
			c-0.8,0-4.4-3.1-8-6.9c-4.9-5.2-6.7-6.2-6.7-4.1c0,1.8,0.7,2.4,2,1.8c1.3-0.8,1.3-0.5,0.3,1.1c-0.8,1.3-1.5,3.4-1.6,4.7
			c-0.2,1.3-0.3,3.8-0.5,5.4c0,1.5-1.3,2.8-2.6,2.8c-1.8,0-2.4-2-2.4-8.2v-8l-8.2,0.3c-6.5,0.3-8.2,0.8-8.2,3.3
			c0,4.1-12.2,3.9-15-0.3c-2.6-4.2-6.2-2.4-6.2,3.3c0,3.1-0.8,4.7-2.4,4.7c-1.3,0-2.4-1.1-2.4-2.6c0-4.6-13.5-1.5-19.4,4.4
			c-2.8,2.8-6.5,4.7-9,4.7c-4.6,0-12.4-3.1-12.4-4.9c0-0.7-2.9-1.6-6.7-2.3c-8-1.3-17-5.7-23.2-11.6c-3.1-2.9-4.6-3.6-5.1-2.1
			c-2.1,6.4-2.3,6.5-2.4,1c-0.2-4.4,0.8-6.7,3.4-8.5c4.6-3.3,2.6-5.4-2.6-2.9c-4.2,2-5.1,1-16.5-17.3c-4.2-7-4.2-7.2-1.3-10.6
			c2.8-3.4,2.6-3.4-1.3,0.2c-2.3,2-4.6,3.6-5.2,3.6c-2.1,0-1.1-6.2,1.3-8.2c3.6-2.9,2.9-4.9-1.8-4.9c-3.9,0-3.9-0.2-1.6-3.6
			c3.4-4.7,3.3-5.7-0.5-6.7c-2.4-0.5-3.4-3.3-5.1-12.4c-2.3-13.7-1.6-42.1,1-43.9c1-0.7,1.8-2.3,1.8-3.6c0-1.3,3.1-8.6,6.9-16.2
			c3.6-7.5,6.7-15,6.7-16.5c0-1.6,1.1-3.8,2.4-4.9c1.3-1.1,2.4-2.9,2.4-4.1c0-1.1,2.6-6.7,5.7-12.2c3.1-5.5,5.7-10.6,5.7-11.4
			c0-0.7,2-2.6,4.4-4.2l4.6-2.8l-2.9,4.4c-4.9,7.3-2.4,8,5.2,1.5c7.5-6.4,7-2.8-0.5,4.2c-2.3,2.3-4.2,5.4-4.2,7
			c0,1.6-1.5,4.4-3.4,6.4c-4.6,4.6-12.1,18.6-14.7,27.4c-2,6.7-2,7.3,1.3,10c5.4,4.4,6.9,13.5,6.2,39.7c-0.8,31-1.8,37.7-7.5,48.3
			l-4.6,8.6l3.4,2.9c2.1,1.6,3.6,4.7,3.8,7.5c0,4.6,0.3,4.7,7.3,4.2c10.4-0.5,19.6,2.6,21.7,7.7c2.3,5.4,2.4,12.1,0.3,13.5
			c-0.8,0.7,0.2,1.3,2.3,1.3c2.1,0,3.6-0.5,2.9-1c-1.6-1.6,4.9-13.2,9-16c4.2-2.9,11.1-3.4,11.1-0.8c0,1.6,3.3,1.3,11.8-1.1
			c2.1-0.7,3.3,0.8,4.7,6.2c2.9,11.3,3.1,11.6,4.1,10.6c0.5-0.5,1.1-1.8,1.3-3.1c0.5-2.6,4.1-16,5.1-18.9c0.5-1.3,2.8-0.2,6.5,3.8
			c6.4,6.2,8.3,6.7,14.7,3.8c3.6-1.6,4.4-1.5,6.5,1.3c1.3,1.6,2.4,4.4,2.4,5.9c0,2.4,0.7,2.6,4.1,1c2.1-1,4.4-3.1,4.9-4.7
			c0.5-1.6,3.3-4.9,6-7.2l4.9-4.2l4.6,4.9c4.6,4.7,4.6,4.7,7.8,1.5c4.9-5.1,9.3-2.6,12.7,7c2.6,7.3,3.1,7.8,4.7,4.7
			c1-1.8,2.4-2.8,3.1-2.1c0.7,0.7,1.1,0.5,1-0.3c-0.8-3.6,0.2-5.7,2.4-5.7c1.3,0,2.3-0.5,2.3-1.1c-1-6.2,2.6-7.3,14-5.1
			c9,1.8,10.8,3.8,7,7.5c-1.1,1.1-1.3,2-0.5,2c0.7,0,0,1.5-1.6,3.3c-2.6,2.8-2.6,3.8-0.7,8.5c2.3,5.7,6.4,9.6,8.3,8.5
			c0.8-0.5,1.3-4.7,1.3-9.5c0-11.4,4.9-18.9,14.2-21.9c6.2-2,7.2-2,11.4,1.1c4.9,3.8,7.3,3.4,21.5-2.6c5.1-2.1,6-2.1,9.8,0.8
			c6.5,4.7,9.1,11.1,6.7,16.5c-1.1,2.3-2.1,7.3-2.4,11.3c-0.7,9.5-2.6,11.4-10.9,10.6c-9.5-1-11.3-2.8-9.1-8.8
			c1.8-5.2,0.5-15.3-2.1-17.1c-1-0.5-2.9,0.2-4.6,1.6s-3.3,2.3-3.6,1.8c-2.1-2,0.2,12.7,2.3,16.2c2.4,3.6,2.4,4.1-0.5,6.7
			c-2.9,2.8-4.1,2.3-3.4-1.3c0.2-0.8-0.5-1-1.5-0.3c-1,0.5-1.3,1.6-0.8,2.3c1.3,2.3-11.3,3.4-17.1,1.8c-2.9-0.8-6.5-2.6-8-3.9
			c-2.4-2.3-3.8-2-12.9,2.4c-9.6,4.6-12.9,8-7.7,8c1.3,0,2.4,1,2.4,2.1s3.3,5.5,7.2,9.6c3.9,4.2,7.7,9,8.2,10.8
			c0.7,1.6,2.6,3.9,4.7,4.7c2,1,5.9,6.4,8.8,12.2c4.2,8.3,6.4,10.8,10.9,12.4c3.1,1.1,6.2,3.6,6.7,5.2c0.7,1.8,1.8,3.3,2.6,3.3
			s4.6,3.3,8.3,7.3c6.2,6.7,13.5,10.3,18.9,9.1c1.1-0.2,4.7,1.3,8,3.3c5.5,3.4,7.8,3.8,34.9,3.8c27.9,0.2,29,0,32.8-3.4
			c2.8-2.8,5.9-3.8,10.9-3.8c3.8,0,8.3-0.8,10-1.6c4.2-2.3,14-11.4,12.2-11.4c-0.8,0,0-1.1,1.8-2.4c1.6-1.3,2.4-2.4,1.8-2.4
			c-3.3,0,4.1-5.1,9-5.9c5.9-1.1,11.4-6.5,16.2-15.7c1.6-3.3,3.8-6.4,4.6-6.9c0.8-0.7,2.4-4.9,3.4-9.6c1-4.7,3.1-10.8,4.9-13.4
			c1.8-2.8,3.3-6.2,3.3-7.7c0-4.1-5.7-6.5-11.9-5.4c-4.7,1-5.9,0.5-8.3-3.3c-2-3.1-2.6-6-2-9.8c1.6-8.3-2.8-12.4-11.8-11.1
			c-8.6,1.1-8.8,5.2-0.3,8c4.6,1.5,5.7,2.8,6,6.5c0.7,7.5-2.4,9.8-14.4,10.9c-9.5,0.8-11.3,0.5-14.5-2.4c-3.3-3.1-3.6-4.6-2.9-18.6
			c0.5-15.8,1.5-18.1,7.3-19.1c2.1-0.3,4.1-1,4.6-1.5c1.8-1.6,16,0.3,18.8,2.8c3.6,3.3,5.4,3.1,9-0.8c6.4-7,12.2-2.4,12.2,9.6
			c0,3.6,0.8,7,1.6,7.5c1.6,1,2.3-0.2,3.9-7.7c0.7-2.8,2.1-4.6,3.9-4.6c2.1,0,2.3-0.3,0.7-1.5c-1.8-1-1.5-2.4,1-6.9
			c1.8-3.1,3.8-9.1,4.6-13.7c1.3-8.2,1.3-10.3,1-16.3c-0.5-5.1-21.2-26.9-25.6-26.9c-3.6,0-3.8,0.5-4.2,20.6
			c-0.7,18-1,20.7-3.8,22.8c-3.4,2.4-15.2,3.1-18.4,1c-1.6-1-2.3-12.4-2.6-45.5c-0.2-24.3-0.2-45,0.2-46c0.3-1,1.6-1.8,3.1-1.8
			c1.6,0,2-1,1.3-3.4c-0.7-2-1.3-10.8-1.6-19.7c-0.5-15.3-0.3-16.3,2.6-15.5c1.6,0.5,2.8,0.2,2.1-0.7c-0.5-0.8-2-1.5-3.3-1.5
			c-1.5,0-2.3-1.8-2.3-5.9s0.7-5.7,2.1-5.1c1.1,0.5,2.1-0.5,2.3-2.3c0.2-1.8-0.5-2.6-2-2.1c-1.3,0.5-3.9-0.2-6-1.6
			c-2-1.5-6.4-2.6-9.6-2.6c-4.6,0-6.4-0.8-8-4.1c-1.1-2.3-2.8-4.1-3.4-4.1c-2,0-3.3-8.2-1.8-10.8c0.8-1.5,3.1-3.4,5.2-4.4
			c2.1-1.1,4.4-4.2,5.2-7c0.8-3.1,2.6-5.5,4.6-6c2-0.5,3.3-2.3,3.3-4.2s1.5-4.7,3.4-6.4c3.9-3.3,8-10.4,8-14c0-4.6-5.9-6.2-11.6-3.3
			c-2.9,1.5-10.4,3.3-16.8,4.2c-13.1,1.8-22.4,4.6-31.5,9.5c-3.4,1.8-8,3.3-10.3,3.3c-2.3,0-7,2-10.4,4.2c-3.4,2.3-9.3,4.7-12.9,5.2
			c-3.6,0.5-8.5,1.8-10.8,2.9c-3.6,1.8-4.7,1.6-10.1-2.3c-8.6-6-10.4-14.2-4.1-18.6c3.1-2.4,4.2-4.6,4.2-8.6c0-3.1,1.1-6.5,2.6-7.7
			c1.3-1.1,4.4-4.1,6.7-6.5c2.8-3.1,4.9-4.1,6-2.9c2.6,2.1,13.5-0.7,22.8-5.9c4.2-2.4,9.8-4.6,12.1-4.7c8.2-0.7,15.8-2.8,18.4-5.1
			c1.3-1.1,7.7-2.6,13.9-3.3c10.6-1,11.6-1.5,13.5-5.7c1.1-2.8,3.3-4.7,5.1-4.7c1.6,0,3.6-0.7,4.1-1.6c0.5-0.8,4.1-2.3,7.8-3.4
			c9.6-2.4,22.2-10.8,23.3-15.5c1-3.6,6-6.7,19.7-12.1c2.8-1,6.4-3.3,8-5.1c1.5-1.6,4.1-3.1,5.9-3.1s3.9-2,5.1-4.4
			c1-2.6,2.4-5.1,3.3-5.5c2.6-2-4.9-8-10.1-8c-2.8,0-5.1-0.8-5.1-1.8c0-1.3-0.7-1.3-2.1,0c-2.4,2-12.6,1.8-12.6-0.3
			c0-2.9-21.1-0.7-28.6,3.1c-7.2,3.4-11.8,5.1-16.6,6.4c-1,0.3-4.4,2.3-7.3,4.6c-2.9,2.1-6.7,4.4-8.3,4.9c-1.6,0.7-2.4,2-2,2.8
			c0.7,1.1-0.3,1.5-3.1,0.7c-2.6-0.7-4.2-0.3-4.2,0.8c0,1-4.2,4.4-9.3,7.7c-5.2,3.3-10.9,7.5-12.7,9.5c-1.8,1.8-6.9,5.2-11.4,7.5
			c-4.9,2.4-9.8,6.5-12.4,10.6c-2.4,3.6-6.2,7.2-8.3,8.2c-9.3,4.1-23.8,15.5-19.7,15.5c0.8,0,1.6,1.1,1.6,2.4c0,1.8-1.5,2.1-6.4,1.5
			c-4.9-0.8-6.2-0.5-6.2,1.5c0,2.4-8.8,10.9-11.4,10.9c-0.8,0-5.5,2-10.6,4.2c-12.2,5.9-12.4,10.1-0.7,16.8c4.6,2.6,9.1,6.2,10.3,8
			c1,1.6,3.1,5.1,4.7,7.2c1.6,2.3,3.3,8,3.9,12.6c1,8.5,1,8.5-3.3,8c-2.4-0.3-4.7-1.1-5.4-1.6c-0.5-0.7-2.9-0.3-5.2,0.5
			c-5.2,2-7.8,1-9-3.4c-0.7-2.8-0.3-3.3,1.8-2.4c1.8,0.7,1.5-0.3-1.1-3.1c-2.3-2.4-5.2-4.2-6.5-4.2c-1.5,0-4.9-1.3-7.5-2.9
			c-6.4-3.9-9.8-1.5-6,4.2c1.3,2,2,4.9,1.6,6.5c-0.8,2.9,2.4,7.3,4.2,5.7c1.1-1.1,7.5,4.2,7.5,6.4c0,1,1.5,3.4,3.3,5.7
			c1.8,2.3,3.3,5.5,3.3,7.2s2.3,5.2,4.9,8c3.9,4.1,4.7,5.9,3.9,9.5c-1.1,4.6-3.1,7.7-5.2,7.8c-0.7,0-5.9,0.5-11.8,1.1
			c-8.6,1-12.4,0.7-20.2-2.1c-5.4-1.8-10.8-3.3-11.9-3.3c-3.3,0-11.3-8.3-12.7-13.1c-0.7-2.3-4.6-7.2-8.8-10.9
			c-7.2-6.7-12.1-8.6-13.9-5.5c-1.5,2.1,5.4,10,8.8,10c4.1,0,6,2.9,7.3,11.4c0.5,4.1,1.5,8.6,1.8,10.1c0.5,1.6-1.1,4.9-4.1,8
			c-2.8,2.9-5.1,4.6-5.1,3.8c-0.2-0.8-1.1,0.3-2.4,2.6s-2.3,3.1-2.4,1.8c0-1.1-2.4,0.5-5.2,3.6c-6.2,6.5-10.6,8-18.1,5.9
			c-4.7-1.3-5.4-2.3-5.9-7.5c-0.3-3.4-0.7-8-0.5-10.3c0.2-6.5-6-14.2-13.4-16.3c-3.4-1-9-3.6-12.2-5.5c-7-4.4-24.6-7.8-33.1-6.5
			c-4.6,0.8-7.3,0.2-11.6-2.4c-3.1-1.8-6.7-3.4-8-3.4c-1.3,0-3.8-1.5-5.2-3.1c-2.4-2.6-3.8-2.9-7.2-1.6c-4.2,1.6-4.2,1.6-1.1-1.6
			c1.6-2,4.4-3.4,6.2-3.4c3.4,0,3.4,0,0.2-2.4c-3.1-2.3-3.1-2.3,0.5-2.4c2,0,4.1,0.8,4.6,1.8c0.8,1.1,2,0.5,3.4-1.5
			c2.3-3.3,29.2-17,37-18.9c2.9-0.7,5.7-0.3,7.3,1c2.3,1.8,2.3,1.5,0-1.3c-3.6-4.1-3.8-5.5-0.5-5.5c1.3,0,2.4,0.8,2.4,1.6
			c0,3.1,3.6,1.6,10.3-4.1c3.6-3.1,8-5.7,9.8-5.7c3.3,0,3.3,0,0.2,3.6c-2.9,3.3-2.9,3.4-0.2,2.4c1.6-0.7,5.5-1.1,8.6-1.1
			c4.2,0,5.2-0.5,4.6-2.4c-1.5-3.8,2-2.9,4.7,1.1c2,2.9,2.6,3.1,2.6,1.1c0.2-3.4,9.3-5.1,14-2.6c2.8,1.3,2.6,1-0.7-2.8
			c-3.9-4.2-3.9-4.2-0.5-4.2c2,0,3.6,0.7,3.6,1.5c0,2.4,8.8,7.3,9.5,5.4c0.3-1.1,3.4-2,6.9-2c5.4,0,6,0.5,5.4,3.3
			c-0.7,2.3,0.5,4.4,3.3,6.5c2.1,1.8,4.6,5.1,5.1,7.2c0.5,2.3,2.4,4.6,4.4,5.1c3.9,1.3,3.9,1.3,5.4-4.4c0.8-3.4,0.5-4.6-1.3-4.6
			c-1.1,0-4.9-2.8-8.2-6c-5.1-5.4-5.5-6.4-3.1-7.2c2.1-0.8,0.8-1.5-4.4-2.8c-6.5-1.5-6.7-1.6-2.4-2c7.7-0.5,12.1,0,18.1,2.6
			c4.9,2.1,5.5,2.1,5.5-0.2c0-2.6,6.4-5.9,12.6-6.2c3.3-0.3,3.3-0.5,1-3.1c-2.4-2.8-2.3-2.9,0.8-2.9c1.8,0,3.8,1,4.2,2.1
			c0.5,1.5,1.3,1.3,2.4-0.7c1-1.5,6.7-5.7,12.7-9.3c6.2-3.8,20.2-13.7,31.5-22.4c49.9-38.2,70.8-53.5,84.9-62
			c38-23,67.9-28.7,91.4-17.1c10,4.9,17.1,9,18.1,10.4c0.7,0.7,2.6,0.5,4.4-0.5c5.7-3.1,7.7-2,3.8,2c-3.3,3.6-3.4,4.1-0.8,6.2
			c6,4.9,24.8,35.9,31.7,52.1c3.9,9.5,8.2,18.6,9.3,20.2c1.8,2.9,2.1,2.9,3.1,0.5c0.5-1.5,1.6-2.8,2.4-2.8c2.9,0,1.5,5.2-3.4,12.2
			c-4.7,6.9-7,12.6-2.8,6.5c2.9-3.9,3.9-2.1,6.2,12.4c2.4,16,0.8,38.4-3.9,54.5c-2.1,7.2-4.2,14.2-4.6,15.5c-0.3,1.3-1,2.8-1.5,3.3
			c-0.5,0.5-2.6,4.4-4.9,9c-8.2,16.2-35.4,57.9-37.9,57.9c-0.7,0-1.3,1.1-1.3,2.4c0,1.3-1.1,2.4-2.4,2.4c-1.8,0-2.4-2.8-2.8-11.8
			c-0.3-6.9-1.1-11.8-2.1-11.6c-1,0.3-1.8,11.8-2.1,29l-0.3,28.6h-6c-4.7,0-5.5,0.5-4.1,2c1.1,1.1,2,4.1,2,6.7
			c0,4.1-0.3,4.4-2.4,2.8c-3.4-2.8-5.2-1-7.8,8.6c-4.1,13.9-5.1,22.4-4.6,37.2c0.3,10.1-0.2,14.7-1.8,16.3c-1.3,1.3-2.4,4.7-2.6,7.8
			c-0.2,3.1-2.3,11.1-4.6,18c-7.3,21.9-18.6,38.5-34.8,51.4c-23.3,18.4-42.1,25.6-70.3,26.4C364.8,578.1,352.4,577.8,347.7,577z
			 M176,466c0-0.8-1.5-1.6-3.4-1.6c-1.8,0-2.8,0.8-2.3,1.6c0.5,1,2.1,1.6,3.4,1.6C175,467.6,176,467,176,466z M125.9,465
			c1.8-1.8-0.8-5.5-3.8-5.5c-3.6,0-5.5,2.4-4.1,4.9C119.2,466.2,124.3,466.6,125.9,465z M291.1,463.1c0-2.9-3.3-2.4-3.8,0.7
			c-0.5,1.6,0.2,2.4,1.6,2C290.1,465.2,291.1,464,291.1,463.1z M450.2,393v-28.6l7.3,0.7l7.5,0.5l-8.6-8.5c-4.7-4.7-9.1-8.5-9.8-8.6
			c-1.5,0-1.8,68.7-0.3,72.5C448.9,428,450.2,419.2,450.2,393z M64.9,400.2c2.6-9.5,1.8-57-1-57.9c-1.6-0.5-2.1,6.2-2.1,29.7
			c0,16.8-0.8,32.2-1.6,34.6c-1.5,3.8-1.3,4.1,0.5,2.4C61.9,408.1,63.9,404.1,64.9,400.2z M501.8,373.1c-3.8-32.6-3.3-38.5,3.1-41
			c5.2-2,5.2-7,0.2-9.5c-5.7-2.6-8.6-21.5-3.4-21.5c2.1,0,2.3-0.7,0.8-3.3c-1-1.8-2.8-3.3-4.1-3.3c-1.1,0-3.1-2.6-4.1-5.7
			c-2.8-8.5-4.9-6.9-4.9,3.9c0,5.4-0.5,11.1-1,12.7c-0.7,2.1-0.5,2.3,0.7,0.8c1.1-1.8,1.6-1.8,2.4,0.3c0.5,1.3,0,3.4-1.1,4.6
			c-1.1,1.1-1.8,3.1-1.3,4.2c0.3,1.1-0.7,3.8-2.3,5.5c-1.8,2-2.1,2.9-1,2.3c1.6-1,1.8-0.2,1,3.4c-1.5,6.4-2.1,7-5.5,7
			c-4.2,0-11.6,3.3-15,6.7c-2.4,2.4-2.4,3.1-0.3,7.3c1.5,2.6,3.6,5.4,4.9,6c1.3,0.7,2.3,3.1,2.3,5.2c0,2.3,0.5,3.9,1.3,3.9
			c4.6-0.8,4.7-0.7,18,13.7c3.9,4.2,7.8,7.2,8.8,6.7C502.3,382.8,502.4,379,501.8,373.1z M48.7,371.5c0-6.4-0.7-11.9-1.6-12.4
			c-1-0.7-1.6,3.6-1.6,11.3c0,7.2,0.7,12.4,1.6,12.4S48.7,377.9,48.7,371.5z M531.8,345.4c-0.2-1.6-1-1.1-2.4,1.5
			c-3.1,5.4-2.9,8.2,0,4.2C530.7,349.3,531.8,346.7,531.8,345.4z M60.1,334.8c0-0.5-1.5-1-3.3-1c-3.6,0-3.8,0.2-2.3,3.9
			c0.8,2.1,1.3,2.1,3.3,0.2C59.2,336.7,60.1,335.3,60.1,334.8z M528.5,335.4c0-1.8,1-3.3,2.3-3.3c3.4,0,5.1,3.4,2.4,5.2
			c-1.6,1-1.1,1.3,1.8,1c2.6-0.3,4.2-1.6,4.6-3.8c0.3-1.8,1.8-4.6,3.3-6c1.3-1.6,1.8-2.9,1-3.1c-0.8,0,0-0.7,2-1.5
			c2.3-0.8,4.4-4.4,6.2-10.4c1.6-5.1,3.6-9.1,4.4-9.1c1.3,0,5.9-8.2,7.2-13.1c0.3-1.3,2.4-6.9,4.2-11.1c0.8-2.1,1.5-9.1,1.5-15.8
			c0-6.7,0.7-12.2,1.3-12.2c0.7,0,1.5-3.1,1.6-6.9c0.2-3.9,0.8-11.9,1.3-17.8c0.5-6.4,0.3-11.3-0.7-11.9c-1-0.5-3.8,0.2-6.2,1.5
			c-2.6,1.3-4.1,2.4-3.3,2.4c1,0,0.2,1.1-1.6,2.6c-1.6,1.3-2,2-0.7,1.3c1.3-0.7,0.5,0.8-2,3.4c-2.6,2.6-4.6,6.4-4.6,8.8
			c0,5.2-4.1,11.6-7.5,11.6c-1.3,0-3.8,1.5-5.5,3.3c-1.8,1.8-4.6,3.3-6,3.3c-4.7,0.2-7.8,3.8-8.3,9.8c-0.7,6.2-3.1,10.3-5.4,9
			c-1.8-1.1,0,9.8,2.9,18c2.1,5.7,2.6,13.5,2.3,30.5c-0.2,3.3-1.3,4.7-5.1,6c-2.6,0.8-4.9,2.1-4.9,2.6c0,0.5,0.7,0.7,1.3,0.2
			c0.8-0.5,2.6,1.3,4.2,4.1C525.9,339.5,528.5,340.2,528.5,335.4z M460.5,319.9c-0.3-8-1-10.1-4.1-12.4c-2-1.6-3.9-2.6-4.2-2.3
			c-0.3,0.3,0.7,5.4,2.1,11.3c1.5,5.9,2.1,11.4,1.6,12.6c-0.8,1.1-0.2,1.6,1.8,1.1C460.3,329.7,460.8,328.3,460.5,319.9z M477,300.7
			c-1.8-5.2-0.8-24.2,1.3-26.8c1-1.3,3.3-2,5.2-1.8c2.1,0.3,3.3-0.3,3.1-1.5c-0.3-1.1-0.7-3.1-0.8-4.1c-0.3-1.1,1.1-2.3,3.3-2.6
			c3.4-0.5,5.2-3.6,2-3.6c-0.8,0-1.6-1.8-1.6-3.8c0-2.1-1.5-5.2-3.1-6.7c-2.9-2.8-3.3-2.8-6.5,0.5c-1.8,1.8-3.9,5.4-4.4,7.8
			c-0.7,2.6-2.3,6.2-3.4,8.2c-1.8,2.8-2,4.2-0.5,7c2.1,4.1,0.7,6.9-1.8,3.3c-1.3-1.8-1.5-1.6-0.7,1.3c0.7,2.1,0.3,3.6-0.8,3.6
			c-1,0-1.5,1.3-1,2.9c1,3.4,2.9,13.4,3.1,16.3c0,1,0.7,2,1.5,2c0.7,0,1.1,0.5,1.1,1.3c-0.2,0.7-0.2,2.6,0,4.4
			c0.2,2.9,0.3,2.9,2.8-0.5C477.3,305.7,477.8,303.1,477,300.7z M453.5,295.6c0-2.3,0.7-4.4,1.5-4.9c0.8-0.5,2-5.2,2.4-10.3
			c0.7-5.2,1.5-10.6,2-12.1c1-3.4-3.9-5.4-6.9-2.9c-2.8,2.3-3.3,34.1-0.7,34.1C452.8,299.5,453.5,297.7,453.5,295.6z M510.6,294.5
			c-1.1-1.8-2.3-3.1-2.6-2.6c-1.1,1.1,1.1,6,2.8,6C511.7,297.9,511.6,296.4,510.6,294.5z M209.6,285.2c1-0.7,2.1-2.4,2.8-3.9
			c0.8-2.6,0-2.9-6.4-2.9h-7.2l2.6,4.1C204.3,286.6,206.5,287.3,209.6,285.2z M510.3,283.4c-0.5-6.4,0.5-10,2.6-10
			c1.3,0,2.6,1,3.1,2.1c0.3,1,1,0,1.5-2.4c0.7-3.8,0.3-4.6-2.6-4.7c-3.4,0-3.4-0.2-0.2-1.5c2.8-1.1,2.8-1.5,0.5-1.5
			c-1.6-0.2-2.9-1.3-2.9-2.6c0-5.5-8.3,0.5-8.8,6.2c0,2.3-0.7,3.8-1.3,3.3c-0.8-0.3-1.1,1.3-1.1,3.9c0.2,2.6,0.5,3.4,1,1.8
			c1.3-4.7,5.4-1.5,4.4,3.4c-0.7,3.4-0.3,4.6,1.6,4.6C509.3,286,510.4,284.8,510.3,283.4z M283.6,276.5c-1.8-3.1-2.9-4.2-2.4-2.4
			c0.8,2.1,0.3,2.8-1.5,2.1c-1.3-0.7-2.8-0.3-3.3,0.5c-0.7,1,0.8,1.6,3.3,1.6c2.3,0,4.6,1.1,5.2,2.4c0.5,1.5,1.1,2.3,1.6,2
			C286.8,282.2,285.5,279.5,283.6,276.5z M259.3,278.6c0-1.3,1-2,2.4-1.3c1.3,0.5,2.4,0.2,2.4-0.7s-1.6-2-3.6-2.6
			c-5.5-1.6-17.6-11.9-17.6-14.9c0-1.6,1-2.1,2.6-1.5c1.3,0.5,2,0.3,1.5-0.7s-2.1-1.6-3.3-1.6c-3.6,0-6.5-6.5-3.9-8.3
			c1.8-1.1,1.5-1.5-1-1.5c-2.8,0-2.9-0.3-0.8-1.8c2-1.3,2-1.5-0.8-1.3c-4.2,0.7-10.6-1.6-10.6-3.6c0-0.8-0.7-1.5-1.5-1.5
			c-1,0-3.6-1.8-6-4.1c-3.9-3.8-11.6-5.9-10.1-2.8c2.8,5.9,7.5,11.8,9.8,12.4c1.6,0.3,3.9,2.9,5.1,5.7s2.6,4.7,3.1,4.1
			c1.8-1.8,14.2,7.7,13.2,10.1c-0.7,2-1.3,2-3.6,0.3c-2-1.5-1.8-1.1,0.3,1.5c1.6,2,4.4,3.3,6,2.9c2.1-0.3,3.6,1,5.1,4.6
			c1,2.9,2.9,6,4.1,7C255.2,281.7,259.3,281.4,259.3,278.6z M196.4,276.7c0-1.3-1.8-2.6-4.1-2.9c-2.3-0.3-5.9-2.3-8.2-4.4
			c-2.3-2-6-4.1-8.5-4.7c-2.4-0.5-4.7-2.3-5.2-3.9c-0.7-1.6-3.9-5.9-7.5-9.3c-7.8-7.7-16.5-8.8-21.4-2.8c-2,2.6-4.1,3.4-6.7,2.8
			c-3.9-1-5.7-0.2-9.1,4.4c-2,2.3-1.6,3.1,2,5.4c3.6,2.4,30.2,8.2,43.1,9.3c2,0.2,3.9,1.6,4.4,3.1C177,279,196.4,281.9,196.4,276.7z
			 M272.3,268.2c0-2.3,0.8-2.9,2.4-2.3c2.1,0.7,2.3,0.3,0.8-2.3c-1-1.8-3.1-3.3-4.9-3.3c-2,0-4.2-2-5.7-4.9
			c-1.5-2.6-3.3-4.9-4.1-4.9c-2,0-0.5,6.9,2.6,12.9c1.3,2.3,2.3,5.4,2.3,6.9c0,1.5,0.5,3.1,1.1,3.6
			C268.6,275.7,272.3,271.6,272.3,268.2z M202.5,257.7c1.8-1.6-3.8-12.7-8-16.5c-4.7-4.2-10.6-4.9-13.2-1.6
			c-1.3,1.6-0.8,2.6,1.8,4.4c3.6,2.3,4.4,2.6,7.7,3.1c1,0,1.6,1,1.6,1.8C192.3,254.2,199.7,260.5,202.5,257.7z M450.4,251.7
			c2.4-2,5.5-5.7,7.2-8.2c1.6-2.6,5.9-6,9.3-7.8c3.4-1.8,7-5.1,7.8-7.2c1.6-4.1,7.7-6,17.1-5.2c3.4,0.3,5.7-0.5,7.8-3.1
			c1.6-2.1,7.7-5.2,13.9-7.2c6-2,12.1-4.9,13.4-6.5c3.3-3.6,7.7-5.9,13.9-7c5.5-1,7.8,0,9.5,4.1c1.5,4.2-19.7,23.5-28.6,25.8
			c-3.9,1-9.5,2.9-12.6,4.6c-3.1,1.5-6.2,2.9-7,2.9c-0.7,0.2-1.6,0.3-2.1,0.5c-0.5,0,0.3,2,1.8,4.2c2.1,3.3,3.9,4.1,10,4.1
			c5.9,0,8.2-1,12.2-4.9c2.6-2.6,5.4-4.9,6.2-4.9c0.7,0,5.7-3.8,11.3-8.3c7.5-6.2,10.1-9.6,10.9-13.9c0.5-3.1,1.8-5.5,2.6-5.5
			c1,0,3.1-2,4.9-4.2c2.3-2.6,4.4-3.9,6.4-3.4c1.8,0.5,3.6,0.2,4.1-0.7s0.3-1.5-0.5-1.3c-4.4,0.8-5.7-0.5-4.9-4.4
			c1.3-7.5-7.7-28.2-16.8-38.5c-1.3-1.5-4.6-3.4-7-4.4c-2.4-1-4.4-2.9-4.4-4.4c0-1.6-1.3-4.2-2.8-5.9c-2.4-2.8-2.4-3.4-0.5-4.7
			c1.8-1.3,2-2,0.5-2.6c-1.1-0.3-2.1-2-2.1-3.4c0-7.7-14.2-8.3-18.9-1c-1.5,2.1-6.9,6.2-11.9,9.1s-11.3,7.3-13.7,9.8
			c-4.9,4.7-9.5,4.7-5.7,0c1.8-2.4,1.8-2.4-0.5-0.7c-1.6,1.3-2.3,3.4-1.8,6c0.3,2.3,1.1,3.8,1.6,3.3c0.5-0.5,2.6,0.8,4.7,2.8
			c4.2,3.9,4.9,11.3,1.3,14.4c-1.3,1-2.8,3.4-3.4,5.2c-1,3.3-7.3,10.4-8.8,10c-0.5-0.2-1,2.1-1.1,4.9c-0.2,2.9-1.8,6.4-3.4,7.7
			c-1.6,1.5-3.6,5.1-4.1,8c-0.7,2.9-3.8,8.3-6.9,11.8c-3.1,3.6-5.7,7.3-5.7,8.6c0,1.3-2.3,2.8-5.1,3.4c-2.8,0.7-4.6,1.5-4.1,2
			c0.5,0.5-1,3.3-3.1,6.2c-3.9,5.1-5.2,10.6-2.9,12.7C440.4,256.6,446.3,255.3,450.4,251.7z M345.7,227.7c0-0.8-1.1-1.6-2.4-1.6
			c-1.3,0-2.4,0.8-2.4,1.6c0,1,1.1,1.6,2.4,1.6C344.6,229.4,345.7,228.7,345.7,227.7z M356.4,217.9c0.5-0.8,2.8-1.6,4.9-1.6
			s5.1-1.1,6.4-2.6c1.5-1.5,5.4-3.3,8.8-4.2c3.3-0.8,7.5-2.9,9.3-4.6c2.3-2.1,5.4-2.9,9.8-2.8c9.3,0.3,23.8-2.1,27.9-4.7
			c4.7-3.3,8-10.6,5.4-12.2c-1.8-1-12.1,2.1-20.9,6.5c-2.9,1.5-10.6,2.3-21.7,2.4c-4.4,0-7.8,0.7-7.8,1.5c0,0.7-0.7,1-1.5,0.3
			c-0.8-0.5-2-0.2-2.6,0.8c-0.7,1-2,1.1-2.9,0.7c-1.1-0.7-1.5-0.5-0.7,0.2c1.1,1.5-3.3,7.3-5.7,7.3c-0.7,0-2.8,1.5-4.7,3.4
			c-2.4,2.4-4.9,3.3-8.2,2.8c-2.6-0.5-4.7-0.2-4.7,0.7s-0.7,1.1-1.5,0.5c-0.8-0.5-2.1,0-2.8,1c-0.7,1.3-0.5,1.5,0.7,0.8
			c1.1-0.7,2-0.2,2,1.3c0,1.3,1.6,2.8,3.8,3.1c2,0.3,4.1,0.8,4.7,1C354.9,219.4,355.9,218.9,356.4,217.9z M454.4,194.3
			c1.5-3.3,4.1-6.5,5.7-7.5c3.3-1.6,9.3-12.9,10.6-19.4c0.5-2.3,1.5-4.2,2.4-4.6c0.8-0.3,1.5-1.6,1.5-2.9c0-1.3,0.7-2.3,1.5-2.3
			c1.6,0,1.5-4.7-0.3-5.4c-2-0.7-7.8,5.5-7.2,7.5c0.7,2.1-19.6,15.7-23.7,15.8c-4.9,0-7.8,2-7.8,5.1c0,1.6,0.8,3.3,1.6,3.3
			c1,0.2,2.4,0.5,3.3,0.7c1,0.2,2.4,0.5,3.3,0.7c1,0,2.4,3.4,3.6,7.5c1.1,4.1,2.1,7.3,2.4,7.3C451.5,200,453,197.4,454.4,194.3z"/>
		<path id="pw27fTOQu" class="st1" d="M485.3,205c-4.4-1-4.6-1.1-1.3-2.1c4.2-1.1,11.9,0.2,11.9,2.1
			C495.9,206.7,492.6,206.7,485.3,205z"/>
		<path id="ptfulfJZv" class="st1" d="M367.6,481.3c-7.5-3.1-9.3-6-8.3-14.9c1.1-11.4,1.5-12.2,8.5-19.6c6.9-7.3,10.1-7.8,18.4-2.4
			c4.2,2.8,4.4,4.4,1.1,10.8c-2.3,4.4-2.3,4.9,0.8,7.8c1.8,1.8,2.8,3.9,2.3,4.9c-0.7,1-0.5,1.3,0.5,0.8c1.6-1,3.8,1.8,4.7,6.5
			c0.2,1-0.5,2.9-1.5,4.2C391.6,482.8,374,483.9,367.6,481.3z"/>
		<path id="p6q1T68z5" class="st1" d="M92.8,475.8c-2-1.3-1.8-1.6,1.3-1.6c2,0,3.6,0.8,3.6,1.6C97.7,477.9,95.9,477.9,92.8,475.8z"
			/>
		<path id="pZtAG5yVt" class="st1" d="M110.9,430.3c-3.3-4.6-3.4-6.9-3.4-49.8c0-39,0.3-45,2.4-45c1.3,0,2.4-1.1,2.4-2.4
			c0-1.8,1.3-2.1,5.4-1.5c8.5,1.5,9,1.8,11.8,7.7c4.6,9.6,23.7,27.7,32.6,30.8c10.3,3.6,11.1,2.4,9.8-12.7c-1-12.9-0.2-17,3.9-17
			c2.3,0,2.3-0.3,0.2-1.6c-2.1-1.3-2-2,0.8-4.7c1.8-1.8,5.9-3.6,9.1-4.1c5.7-0.8,6.2-0.5,9,5.2c2.1,4.4,2.8,8.5,2.3,15
			c-0.8,11.3-0.8,31.5-0.2,54.5c0.3,9.6,0,18.1-0.8,18.8c-0.8,0.5-1.6,2.1-2,3.4c-0.8,3.6-3.6,6.5-6.2,6.5c-2.4,0-7.2-4.6-22.7-21.4
			c-5.4-5.7-11.9-12.4-14.7-14.5c-2.6-2.3-7-6.9-9.5-10.3c-8-10.6-9.1-8.8-9.6,16.2c-0.5,20.4-0.8,22.5-3.8,24.2
			c-1.8,1-5.1,3.1-7.2,4.7C115.5,436,114.8,435.8,110.9,430.3z M122.2,393.4v-28.6h6.2c3.4,0,6.9,0.5,7.8,1.3
			c0.8,0.7-2.9-3.3-8.3-8.8l-9.8-10l-0.5,22.2c-0.7,25.8,1,52.4,3.1,52.4C121.5,421.9,122.2,409.4,122.2,393.4z M189.1,379.5
			c0-32.3-0.3-37.5-2.4-37.5s-2.4,4.4-2.4,29.4v29.4h-6h-6l8,8.2c4.4,4.6,8.3,8.2,8.5,8.2C188.9,417,189.1,400.2,189.1,379.5z"/>
		<path id="pRyrI3qQl" class="st1" d="M382.1,430.7c-2.9-2.9-3.8-4.7-2.4-5.2c2.8-0.8,2.4-3.6-0.5-3.6c-1.3,0-2.4-1.1-2.4-2.4
			c0-1.3,1.1-2.4,2.4-2.4c1.3,0,2.4-1.5,2.4-3.3c0-1.8-1.1-3.3-2.4-3.3c-2.1,0-2.4-4.9-2.4-34.3s0.3-34.3,2.4-34.3
			c2.9,0,3.3-6,0.5-6.9c-1.1-0.5-1.3-1.6-0.5-2.8c1-1.6,3.8-2,11.1-1.1c5.5,0.5,10.4,1.5,11.1,2.3c0.7,0.7,1.5,22.5,1.8,48.8
			c0.3,36.6,0,48.1-1.5,49.6c-1.6,1.6-2.6,1.6-3.9,0.3c-1.5-1.5-3.1-1.3-6.7,0.5C386.7,435,386.2,434.8,382.1,430.7z M391.4,382.8
			c0-38.2-1.5-50.8-3.9-33.3c-1.3,10-1.3,45.5,0,61.5C389.6,435.8,391.4,422.7,391.4,382.8z"/>
		<path id="p1FWEWBzYe" class="st1" d="M303,427.8c-2.6-3.1-4.6-6.9-4.6-8.3c0-1.5-1.3-5.2-2.8-8.6c-1.5-3.3-2.9-7.8-3.1-10
			c-0.3-2.1-1.1-4.6-2-5.4c-1.6-1.6-6.9,0-6.9,2.3c0,0.8-0.8,1-2,0.3c-1-0.7-1.3-0.5-0.8,0.5c0.7,1-0.8,7.5-2.9,14.5
			c-5.9,18-12.6,22.8-20.1,14.9c-2-2.1-3.6-5.7-3.6-8c0-2.4-0.8-6.4-1.6-8.8c-1.5-3.6-1.3-4.7,0.8-6c2.1-1.1,2.3-2,0.7-3.8
			c-1-1.3-3.1-2.3-4.6-2.3c-2.3,0-2.3-0.3-0.2-1.6c2.1-1.3,2.1-1.6-0.2-1.6c-2.6,0-8.5-7-9-10.6c0-0.8-0.3-2.4-0.3-3.6
			c-0.2-1-2.1-3.9-4.2-6.5c-2.1-2.4-4.6-7.8-5.5-11.9c-0.8-4.1-2.6-9.6-3.8-12.4c-2.3-5.5-1-11.3,2.3-10c1.3,0.5,2-1.3,2-5.5
			c0.2-3.4,0.5-6.5,1-7c0.3-0.5,3.9,0,7.8,1c5.2,1.3,7.8,3.1,10.6,7.7c4.1,6.7,8.3,18,9.8,25.8c0.8,5.4,5.4,13.5,7.3,13.5
			c1.3,0,6.7-16.5,6.7-20.7c0-1.8-1.5-5.2-3.4-7.7c-4.2-5.4-2.9-10,2.3-8.6c3.3,1,3.3,0.8,0.7-1.1c-2.6-2-2.6-2.3-0.2-4.4
			c1.5-1.1,5.2-3.1,8.3-4.1c5.4-2,5.7-1.8,8.8,3.1c1.8,2.9,3.6,6.9,4.1,9c0.7,2,2.6,4.1,4.7,4.6c5.2,1.3,7.8,7.7,4.4,10.9
			c-2.3,2.4-2.3,3.1,0.2,8.8c1.3,3.4,2.9,8.2,3.4,10.8c1,4.2,4.2,6.4,4.2,2.6c0-1.1,1.6-6.2,3.4-11.4c2.8-7.5,4.2-9.6,7-9.6
			c3.3-0.2,3.3-0.2,0.5-2.4c-2.8-2-2.9-2.9-1-11.8c1.1-5.2,2.8-10.4,3.6-11.4c2-2.6,12.7-2.8,18.3-0.2c3.8,1.6,4.1,2.6,4.1,13.1
			c0,8.5-0.7,11.4-2.4,12.1c-1.3,0.7-2.4,2.8-2.4,4.9c0,2.1-0.5,3.9-1.1,3.9c-0.8,0-3.1,4.1-5.4,9c-2.3,4.9-4.7,9-5.5,9
			s-0.7,1,0.3,2.1c2.1,2.4-6.2,23.3-9.1,22.8c-1-0.3-1.5,0.7-1,2c2,4.9-7.3,22-12.1,22C307.9,433.4,305.4,430.7,303,427.8z
			 M272.3,401.4c0-0.3-2.1-0.7-4.6-0.7c-5.5,0-6.2-1-15.8-29.4c-7-21.1-10.3-28.6-11.6-27.3c-0.5,0.5,1.3,6.5,4.1,13.5
			c2.6,7.2,6.9,18.4,9.1,25.1c2.4,6.7,5.4,14,6.5,16.3s2.9,6.9,4.1,10.4l2,6.2l3.1-6.9C271,405.1,272.3,401.7,272.3,401.4z
			 M314.4,407.7c3.1-6.7,2.4-8.2-3.6-9l-5.4-0.7l2.4,7c1.5,3.9,3.1,7,3.6,7S313.3,410.2,314.4,407.7z M296,373
			c-0.5-1.8-2.8-7.5-4.9-12.6l-3.9-9.5l-0.2,7.3c0,4.1-0.7,9.8-1.5,12.7l-1.6,5.2h6.5C296.3,376.2,297,375.9,296,373z M336.9,344.1
			c-0.3-0.3-1.6,2.1-2.6,5.5c-1.1,3.4-2.6,7-3.3,7.8c-0.7,1-1.8,4.2-2.3,7.3s1.1-0.2,3.9-7.2C335.5,350.6,337.4,344.4,336.9,344.1z"
			/>
		<path id="p13rqX8QTV" class="st1" d="M133.6,405.6c0-3.1,0.2-3.1,3.3-0.5c1.8,1.6,3.3,3.1,3.3,3.3c0,0.3-1.5,0.5-3.3,0.5
			C134.7,408.9,133.6,407.7,133.6,405.6z"/>
	</g>
</g>
<g id="l1s0tbRGXtGxnRBDIaOdaix">
	<g>
		<path id="pyGK9pJza" class="st2" d="M80.5,478.7c-5.4-2.9-7.3-6.5-7.3-13.7c0-5.7,0.8-7.7,5.1-11.1c5.5-4.7,12.2-5.4,17-2.1
			c3.9,2.9,1.8,6.7-2.4,4.4c-10.3-5.5-19.9,6.4-12.7,15.7c3.1,3.8,4.2,4.1,10.4,3.1c7.7-1.1,9.6,1,4.1,4.1
			C90.5,481.2,84.6,481,80.5,478.7z"/>
		<path id="pONfgSdPu" class="st2" d="M117.9,478.7c-8-3.8-9.8-18.4-3.1-25c7-7.2,18.1-5.1,23,4.4
			C144.7,471.5,131.5,485.4,117.9,478.7z M132,472.5c6.2-6.2,2.3-18-6.2-18c-6,0-8.3,1.8-10.1,8c-1.3,4.6-1,5.9,2.4,9.3
			C122.8,476.6,127.5,476.9,132,472.5z"/>
		<path id="pbUmxvK4c" class="st2" d="M155.9,479.7c-0.7-0.7-1.1-7.7-1.1-15.7c0-11.6,0.5-14.4,2.4-14.4c1.3,0,3.6,2,5.2,4.6
			c1.6,2.4,3.3,4.7,3.9,5.2c0.5,0.5,1.8,2.4,2.9,4.6c3.6,6.9,6.7,4.4,6.7-5.5c0-6.5,0.5-8.8,2.1-8.3c2.6,0.8,2.8,29.2,0,30
			c-1,0.3-5.4-4.2-9.8-10.4l-7.8-11.1l-0.5,9.8C159.5,478.1,158.1,481.8,155.9,479.7z"/>
		<path id="pZkuNlRq" class="st2" d="M197.9,478.6c-1.6-4.2,0.2-27.7,2.3-28.6c1-0.3,4.9,3.9,8.8,9.3s7.5,9.8,8.2,9.8
			c0.7,0.2,1.3-4.1,1.6-9.1c0.3-5.5,1.3-9.5,2.6-10c1.5-0.5,2,3.1,2,14.2c0,20.2-1.3,20.6-13.7,3.4c-2.8-3.6-5.4-6.5-6.2-6.5
			c-0.7,0-1.3,3.9-1.3,8.8C202.1,478.6,199.8,483.3,197.9,478.6z"/>
		<path id="pCsJDXQGQ" class="st2" d="M240.5,478.6c-0.5-1.1-0.7-7.8-0.5-15l0.5-13.1l9.5-0.5c7.5-0.3,9.3,0,9.3,2.1
			c0,1.8-1.8,2.4-7.3,2.4c-6.2,0-7.3,0.5-7.3,3.3c0,3.6,0,3.6,7.3,3.9c6.4,0.3,6.9,5.1,0.5,5.1c-5.5,0.2-8.6,2.9-7.3,6.4
			c0.7,1.8,3.1,2.6,7.7,2.6c4.7,0,6.5,0.7,6.5,2.4C259.3,481.5,241.6,481.8,240.5,478.6z"/>
		<path id="pdbJ68UZr" class="st2" d="M280.5,477.9c-2.3-1.5-4.2-2.8-4.6-2.9c-1.8-1.3-2.8-10.8-1.6-15.2c2-7,10.1-11.3,17.8-9.1
			c8.5,2.4,8.2,6-0.3,4.9c-9.1-1.3-12.9,1.5-13.2,9.5c-0.3,7.7,3.8,11.1,11.9,10c7-1,9,0.5,5.1,3.4S285.2,481.2,280.5,477.9z"/>
		<path id="p14IEBQvP8" class="st2" d="M367.8,476.8c-4.1-4.1-4.1-9,0.2-12.6c1.3-1,2.3-3.9,2.3-6.5c0-7.2,10.1-10.9,14.7-5.5
			c2.4,2.9,0.8,5.5-1.8,2.9c-2.4-2.4-8-0.7-8,2.6c0,3.8,9.1,12.4,10.4,10.1c2.3-3.6,4.6-1.8,3.6,2.4c-0.7,2.4-0.3,5.2,0.8,6.5
			c2.6,3.1,0.8,4.6-2.9,2.6c-2-1.1-4.1-1.1-5.5-0.2C377.4,481.8,371.9,480.8,367.8,476.8z M379.7,472.2c-3.8-5.5-7.7-7.5-9.5-4.7
			c-2.4,3.9,1.1,8.3,6.9,8.3C381.8,475.8,382,475.6,379.7,472.2z"/>
		<path id="p14r1E3Uof" class="st2" d="M433.9,478.7c-9.1-4.9-10.8-17-3.3-24.5c4.4-4.2,5.9-4.9,10.9-4.1c6.7,1.1,9.5,3.3,8,5.9
			c-0.8,1.3-2.1,1.3-4.2,0.2c-4.6-2.4-7.8-2-11.4,1.6c-4.1,4.1-4.2,11.8-0.3,15.2c3.4,3.1,10.3,3.6,12.9,1c1.3-1.3,2.1-1.1,2.9,0.2
			C452.2,478.7,440.6,482.1,433.9,478.7z"/>
		<path id="p5pWb23ke" class="st2" d="M468.8,476.6c-3.6-3.6-4.1-5.2-3.6-15c0.3-6.9,1.3-11.1,2.6-11.6c1.5-0.5,2,2.3,2,10
			c0,8,0.7,11.1,2.9,13.1c7.2,6.5,11.4,2.3,12.1-11.9c0.3-6.4,1.3-10.6,2.6-11.1c1.5-0.5,2,2.4,2,10.9c0,10.1-0.5,11.9-4.1,15.7
			C479.9,481.8,474,481.8,468.8,476.6z"/>
		<path id="pDyhFIrRa" class="st2" d="M506.7,479.4c-1.6-2.6-0.8-25.5,1-27.6c2.4-2.9,12.9-2.6,17.3,0.5c4.2,2.9,4.6,8.2,1.1,13.4
			c-2.3,3.1-2.3,3.9,0.2,7.8c2.4,3.6,2.4,4.4,0.5,5.5c-1.6,1.1-3.1-0.2-5.4-4.2c-3.9-6.7-9.3-7-10.3-0.7
			C510.4,478.9,508.1,481.7,506.7,479.4z M522.7,461.7c1.5-3.9-2.1-7.5-6.9-6.9c-3.9,0.5-6.2,4.9-4.2,8.2
			C513,465.5,521.7,464.5,522.7,461.7z"/>
		<path id="p05F8ojuF" class="st2" d="M545.2,465.7l0.5-15.2h8.6c10,0,11.6,3.1,2,3.8c-5.9,0.5-6.7,1-6.2,4.1
			c0.3,2.8,1.8,3.8,5.9,4.1c3.1,0.3,5.2,1.5,5.2,2.8c0,1.5-1.8,2.1-5.2,2c-4.7-0.3-5.4,0.2-5.4,3.8c0,3.6,0.8,4.1,7,4.6
			c10.4,0.8,7.8,4.2-3.6,4.9l-9.3,0.5L545.2,465.7z"/>
		<path id="pEihEDSa2" class="st2" d="M318.3,468.9c0-14.4,0-14-3.9-14.7c-7.5-1-2.6-3.8,6.9-3.8c9.8,0,13.4,2.4,6.2,4.2
			c-3.4,0.8-3.8,1.6-3.8,12.6c0,10-0.5,11.8-2.8,11.8S318.3,477.3,318.3,468.9z"/>
		<path id="p1F0PtfcAb" class="st2" d="M262.8,423.4c-1.8-3.9-4.1-10.1-5.2-13.7c-1.1-3.6-2.6-7.2-3.3-8.2
			c-0.7-0.8-2.8-6.4-4.9-12.2c-7-19.9-14.7-40-16.3-42.8c-1-1.6-1.6-4.2-1.6-6c0-2.4,1.3-3.1,6.5-3.1c8.5-0.2,9.6,1.6,18.8,28.7
			c3.9,11.8,8.2,23.3,9.5,25.6c2.1,4.2,2.3,4.2,8.2-10.1c8.2-19.6,8.5-22.7,4.6-32c-4.7-11.1-4.6-12.6,2.4-12.2
			c7.3,0.3,8,1.1,19.4,30.7c5.1,13.1,9.8,24.3,10.4,25c1.1,1.1,10.4-23.2,12.4-32.3c0.5-1.8,2.4-7.7,4.6-13.1
			c3.4-9,4.2-9.8,9.1-10.3c3.1-0.3,6.2,0.2,7,1c1.5,1.5-3.6,17.3-14.2,44.4c-2.9,7.7-8.2,20.9-11.4,29.4c-5.9,15.5-9,20.9-9,16.3
			c0-4.2-17.5-46.3-19.4-47c-1-0.3-3.1,2.6-4.9,6.5c-1.6,3.9-4.6,10.8-6.7,15.2c-8,17.6-10.3,22.8-10.4,24
			C267.9,431.1,265.5,429.4,262.8,423.4z"/>
		<path id="ppVmabvNf" class="st2" d="M506.3,416.7c-22.8-23.2-48-47-49.8-47c-1.1,0-1.5,9.6-1.1,28.6c0.3,15.7,0.2,28.7-0.3,28.7
			c-6,1.3-12.2,1.1-13.4-0.5c-1.5-2.1-1.5-87-0.2-90.6c0.5-1.1,14.2,11.1,31.8,28.6c17,16.8,31.5,30.7,32.3,31
			c1,0.3,1.8-11.9,2-28.6l0.5-29h6.5h6.5l0.5,46.2c0.2,25.3-0.2,46-1,46C520,430.1,513.5,424.1,506.3,416.7z"/>
		<path id="piPmUVWEu" class="st2" d="M25.9,427.3c-12.2-4.1-18.3-9.1-22.4-18.4c-2.4-6-4.7-60.5-2.8-68.1c0.8-3.1,2.1-3.8,7.3-3.8
			h6.4l0.3,25c0.3,35.3,0.3,35.6,3.4,41.9c4.9,10.3,22.8,14.2,31,7c6.7-6,7.7-11.9,7.7-43.7v-30.4l7,0.5l6.9,0.5l0.5,30.2
			c0.3,19.1-0.2,32.6-1.5,36.9c-2,7.5-12.6,18.9-19.9,21.7C45.1,428.5,30.3,428.9,25.9,427.3z"/>
		<path id="pljKMN0oO" class="st2" d="M114.2,425.5c-2.1-3.9-2.3-88-0.2-89.3c1-0.5,15.2,12.4,31.8,28.9s31,30.2,31.8,30.4
			c1,0.3,1.6-10.9,1.6-28.9v-29.5h7.3h7.3v45.7c0,31.8-0.5,45.7-1.8,45.7c-1.5,0-21.7-19.1-52.4-49.3c-5.2-5.2-10.3-9.5-11.3-9.5
			c-1.1,0-1.5,9.3-1.1,28.6c0.3,22.7,0,28.7-1.6,29.4C121.2,429.3,115.6,428.3,114.2,425.5z"/>
		<path id="p18SzmkruL" class="st2" d="M383.8,426.5c-1.8-2.3-2.8-82.6-1.1-86.8c0.7-1.8,3.1-2.6,7.2-2.6c5.2,0,6.4,0.7,6.9,3.8
			c0.3,2,0.3,22.5,0,45.7l-0.5,41.9h-5.4C387.9,428.5,384.6,427.5,383.8,426.5z"/>
		<path id="pnvodOvFN" class="st2" d="M565.9,428.1c-0.7-3.8-0.5-88.3,0.3-89.6c0.7-1.1,7.8-1.6,20.4-1.1
			c16.6,0.5,20.6,1.1,27.6,4.4c17.6,8.6,25.8,21.9,25.8,41.9c0,10.1-0.7,12.9-5.2,21.2c-6.2,10.8-9.5,13.9-19.7,19.1
			c-6.2,2.9-10.6,3.6-28.1,4.1C575.4,428.5,566.1,428.5,565.9,428.1z M610.1,410c3.3-1.5,7.8-5.9,10.4-9.8c4.1-6.2,4.4-8,3.9-19.1
			c-0.7-14.9-4.6-21.5-15.8-26.6c-8.6-3.9-26.3-5.5-27.9-2.6c-1.6,2.4-2.1,55.3-0.7,59.2c1,2.6,2.6,2.9,12.7,2.3
			C599.2,413.1,607,411.5,610.1,410z"/>
		<path id="pLrx2bHkc" class="st2" d="M48.2,342.4c-0.5-0.8,2.4-7.8,6.4-15.8s7.2-15.8,7.2-17.3c0-1.6,1.1-3.8,2.4-4.9
			c1.3-1.1,2.4-2.9,2.4-4.1c0-1.1,2.4-6.4,5.4-11.8c2.9-5.2,8.2-15.3,11.8-22.5c3.4-7.2,6.9-13.2,7.7-13.5c2-0.8,1.6-7.5-0.7-10.4
			c-3.8-4.9-14.7-11.1-19.4-11.1c-4.9,0-15.2,4.1-19.7,7.8c-4.1,3.4-4.9-0.3-0.8-4.1c12.9-11.8,34.3-8.2,44.9,7.3
			c7.5,10.9,14.4,17.8,21.2,21.4c7.2,3.6,26.4,9.1,41.1,11.6c18,3.1,36.4,10.3,59.9,23.2c4.6,2.4,8.8,4.6,9.3,4.6
			c2.8,0,0.3-8.3-3.9-14.2c-3.9-5.4-9.3-9-25.9-17.5c-15.5-8-22.8-12.9-28.1-18.6c-11.3-12.2-17.6-24-14.7-26.9
			c1.1-1.1,2.4,0.5,4.4,5.2c2.6,6.4,5.9,8.5,8,5.1c2.3-3.8,19.1-14.9,27.3-18.1c23.3-9.3,75.2,5.1,102.2,28.2
			c5.9,5.1,10.1,5.9,10.1,2.1c0-1.3-9-11.4-19.9-22.5c-27.4-27.4-36.9-32.5-67.1-35.3c-12.6-1.3-17.6-2.6-23.7-6
			c-15.5-8.8-16.6-9.1-27.7-8.6c-22,1-53.7,0.7-63.2-0.7c-17.6-2.3-21.9-2.3-32,0c-15.3,3.6-28.7,13.2-37.5,26.9
			c-2.9,4.7-5.9,9-6.4,9.5s-2,3.1-3.4,5.7c-1.3,2.8-4.7,9.3-7.7,14.7c-2.8,5.4-5.9,11.9-6.9,14.5c-1.3,3.4-2.3,4.2-3.6,2.9
			c-1.1-1.1,1.1-7.3,8.3-21.5c15.8-31.2,26.1-43.1,45.4-52.9c12.1-6,22.7-6.7,49.6-3.4c20.7,2.6,25.8,2.6,43.9,0.8
			c16.8-1.6,21.7-1.6,27.1,0c3.4,1.1,6.7,2.6,7.2,3.1c1.6,2.3,12.4,8,16.8,9c2.4,0.7,11.4,1.8,19.7,2.4c12.1,1.1,18,2.8,27.6,7.2
			c14.7,6.9,23,13.9,46.5,39.3c11.8,12.7,13.5,16.5,9.8,20.2c-3.4,3.4-7.3,2.1-16.3-5.5c-7.8-6.9-21.4-14.9-31.8-18.8l-4.1-1.5
			l3.8,6c2.1,3.4,9,14.4,15.3,24.2c17.3,26.8,20.4,32.6,20.4,38.4c0,4.9-0.3,5.2-4.4,4.1c-2.6-0.7-5.7-1-7-0.8
			c-6.7,1-20.4,0-20.9-1.5c-0.3-1-1.3-1.8-2.3-1.8c-3.6,0-11.8-7.5-19.3-17.8s-21.9-24.6-27.9-27.9c-2.3-1.3-2.4,0-1.8,11.1
			c0.7,12.2,0.8,12.7,7,18.3c7.8,6.9,12.6,16.5,11.6,23c-0.8,5.5-1.8,5.7-10.1,1.5l-6.5-3.3l-0.2,3.6c-0.7,11.1-3.1,19.3-6.2,19.3
			c-3.4,0-7.8-8-10.8-20.1l-3.4-13.4l-11.3-4.1c-10.1-3.8-23.8-7.3-34.1-9.1c-20.6-3.3-34.8-9.1-45.4-18.6c-6.9-6.2-7-6.4-9.5-3.3
			c-1.3,1.8-4.9,8.2-7.8,14.4c-3.1,6-7,13.9-8.8,17.5c-13.5,26.9-22.5,45-24.6,50.3C50.5,343.6,49.5,344.6,48.2,342.4z M210.3,307.9
			c0-8.5-0.3-9.6-4.1-11.3c-6-2.8-6.2-2.6-5.2,5.1c1.1,8.2,5.7,18,7.8,16.6C209.6,317.6,210.3,313.1,210.3,307.9z M278.8,296.8
			c0-0.8-2.6-3.8-5.7-6.9c-3.1-3.1-6.7-7.8-8-10.6c-1.3-2.8-5.4-8-9.1-11.6c-3.8-3.6-8.6-10.4-10.9-15.2c-3.1-6.7-6.2-10-13.9-15.3
			c-5.5-3.6-12.6-9.1-15.8-11.9c-7-6.5-12.4-7.7-17.8-4.2c-3.6,2.3,1.1,9.5,12.9,19.7c20.7,18.1,26.6,23.8,33.9,33.8
			c8.6,11.4,18.3,19.7,24.5,21.1c2.3,0.5,5.1,1.1,5.9,1.5C277.7,298.1,278.8,297.9,278.8,296.8z M292.1,292.5
			c-2.9-7.5-9.6-18.8-25.5-42.6l-16.3-24.6l-12.2-2.8c-6.7-1.5-14.7-2.8-17.8-2.8l-5.7-0.2l5.5,4.9c2.9,2.8,6,4.9,6.7,4.9
			c0.7,0,4.9,2.9,9.5,6.5c5.5,4.4,10,9.8,13.2,16.3c2.8,5.4,6.4,10.8,8.3,11.9c1.8,1,6,6.4,9.6,11.8c7.2,10.9,14.2,18.1,19.9,20.2
			C292.4,297.9,293.7,296.9,292.1,292.5z M209,259.9c-0.7-10.9-2.8-16-12.4-28.7l-6.2-8.3l-7.7,5.5c-4.1,3.1-7.5,6.7-7.5,8.2
			c0,1.3,2.6,4.1,5.7,6.2c3.8,2.4,7.5,7.3,10.6,13.9c3.9,8,6,10.6,10.6,12.6c3.1,1.3,6,2,6.5,1.5C209.1,270.3,209.3,265.4,209,259.9
			z M187.3,255.5c-4.4-7.8-17.6-17.5-19.6-14.4c-1.8,2.8-0.3,4.7,9.8,13.4C188.9,264.1,192.3,264.4,187.3,255.5z"/>
		<path id="ppN287RhS" class="st2" d="M456.4,340.8c-5.7-6.5-11.9-32.6-13.7-57.3l-1.1-15.2l-9.3,1.1c-7.3,0.8-9.8,0.5-11.9-1.8
			c-5.1-4.9-3.8-7.3,13.5-26.9c5.9-6.7,12.4-14.5,14.4-17.5l3.8-5.2l-6-8.3c-4.4-6-6.7-8-8.6-7.3c-10.6,4.4-26.9,9.5-34.9,10.8
			c-5.2,0.8-10.9,2.3-12.7,3.1c-1.6,1-4.7,2.4-6.7,3.4c-6,3.1-34.4,12.9-35.3,12.1c-0.5-0.3-2,0-3.6,0.8c-1.5,0.8-6.2,2-10.3,2.4
			l-7.7,1.1V230c0-5.2,1.1-7.3,8-13.9c4.4-4.1,12.9-10.4,19.1-13.9c10.3-5.7,28.2-13.7,32.3-14.4c1-0.2,2.6-0.7,3.4-1.1
			c1-0.7,4.6-1.6,8.2-2.1c26.6-4.7,48.1-16,95.1-49.6c22.2-15.8,40.8-27.6,60.4-37.9c12.2-6.5,26.3-19.6,31.2-29
			c2-3.9,4.2-6.5,5.2-6c0.8,0.7,1.3,1.5,1,2.1c-0.3,0.7-1.8,3.9-3.4,7.2c-4.1,9.1-16.5,20.1-32.8,29.4c-8,4.6-16.8,9.6-19.6,11.1
			c-9.3,5.2-23,14.4-48.8,32.5c-39.8,27.9-54,35.1-89.9,45c-18.1,5.1-28.7,9.5-42.1,17.6c-7.3,4.4-14.7,9.1-16.5,10.6
			c-3.8,3.4-8.2,11.8-6.9,13.1c1.1,1,21.7-2.8,25.5-4.7c1.3-0.7,7.2-2.9,13.1-4.7c5.9-2,11.4-4.1,12.2-4.7
			c3.3-2.4,16.2-6.9,22.7-7.7c15.3-2,37.4-10.4,36.6-14.2c-0.3-1.1,0.2-2.4,1-2.8c0.8-0.5,2.4,2.4,3.8,6.5
			c2.4,8.3,7.7,15.5,10.1,13.9c1.8-1,17.3-28.1,23.2-40.3c3.4-7.3,6.4-10.1,6.4-6.2c0,2.8-12.2,26.1-21.9,42.1
			c-9,14.9-16.3,24.8-31.5,42.6c-4.7,5.5-8.6,11.1-8.6,12.4c0,4.6,9.3,4.7,19.6,0.5c11.8-5.1,16.2-8,26.8-18.1
			c10.9-10.4,23.7-17.5,31.7-17.5c8.5-0.2,28.6-10.3,38.2-19.3c3.4-3.3,6.7-5.2,7.3-4.6c2.1,2-2,6.5-12.6,13.5
			c-10.1,6.9-16.6,9.6-31,13.5c-20.4,5.5-25.1,8.8-27.4,19.1c-1,4.2-3.3,13.7-5.1,20.9c-4.1,16-4.2,24.6-0.8,41.1
			c3.8,18,3.4,17.1,7,15.3c6.4-3.4,8.5-11.8,7.3-29.2c-0.7-9-0.7-18-0.2-20.2c0.7-2.1,4.7-8.3,9.5-13.5c7.5-8.6,8-9.6,5.2-11.1
			c-3.9-2.1-11.9-9.6-11.9-11.3c0-2.6,4.7-1.3,6.4,1.8c4.6,8.5,25.3,11.1,37.2,4.7c13.5-7.3,28.6-25.6,41.3-50.8
			c7.3-14.4,30.7-35.4,39.3-35.4c5.2,0,3.4,2.8-4.4,6.4c-10.1,4.7-20.2,14.5-30,28.9c-4.4,6.5-8.2,12.4-8.2,12.9
			c0,1.6-10.6,18.1-16,24.8c-3.1,3.8-9.5,9.5-14.4,12.7c-6.4,4.2-9.8,8-12.4,13.5c-4.2,9.1-5.7,25-2.9,33.8
			c3.4,11.6,3.8,19.6,1,25.1c-1.5,2.8-3.8,5.1-5.1,5.1c-6,0-18.1-29.2-19.9-48.5c-0.5-5.7-1.5-10.3-2.1-10.3c-0.5,0-2.8,2.4-5.1,5.4
			c-3.8,4.9-3.9,6.5-3.9,26.8c0,24.2-1.8,29.2-11.9,32.3c-2.9,0.8-5.2,2.3-5.2,3.3c0,2.6-6.2,9-8.8,9
			C459.8,343.6,457.7,342.3,456.4,340.8z M466.5,332c1.8-4.1,1.5-7.3-1.6-21.5c-3.9-18-3.9-18.8,2.3-45.2c3.6-15.2,3.4-16-2.6-10.3
			c-2.9,2.8-8.5,6.7-12.4,8.6l-7.2,3.4l1.1,15c0.5,8.3,1.8,18.3,2.6,22.4c1,4.1,2,8.5,2.3,9.8c1.5,7.7,4.7,17.8,6.9,21.7
			C460.6,341.3,463.3,340.2,466.5,332z M520.7,315c0.8-3.1,0-9.1-2.1-17.8c-3.4-13.5-3.3-18.4,1.1-31.7c1.3-3.8,2.3-7.5,2.3-8.3
			c0-2.6-17-0.2-19.1,2.6c-4.6,6,0.2,33.8,8.8,52.4C516.1,321.6,518.7,322.4,520.7,315z"/>
	</g>
</g>
</svg>
